<svg width="100" height="27" viewBox="0 0 100 27" fill="none" xmlns="http://www.w3.org/2000/svg">
<path d="M14.008 26L6.456 16.08V26H0.984V3.536H6.456V13.392L13.944 3.536H20.376L11.672 14.544L20.696 26H14.008ZM40.1285 16.784C40.1285 17.296 40.0965 17.8293 40.0325 18.384H27.6485C27.7338 19.4933 28.0858 20.3467 28.7045 20.944C29.3445 21.52 30.1232 21.808 31.0405 21.808C32.4058 21.808 33.3552 21.232 33.8885 20.08H39.7125C39.4138 21.2533 38.8698 22.3093 38.0805 23.248C37.3125 24.1867 36.3418 24.9227 35.1685 25.456C33.9952 25.9893 32.6832 26.256 31.2325 26.256C29.4832 26.256 27.9258 25.8827 26.5605 25.136C25.1952 24.3893 24.1285 23.3227 23.3605 21.936C22.5925 20.5493 22.2085 18.928 22.2085 17.072C22.2085 15.216 22.5818 13.5947 23.3285 12.208C24.0965 10.8213 25.1632 9.75467 26.5285 9.008C27.8938 8.26133 29.4618 7.888 31.2325 7.888C32.9605 7.888 34.4965 8.25067 35.8405 8.976C37.1845 9.70133 38.2298 10.736 38.9765 12.08C39.7445 13.424 40.1285 14.992 40.1285 16.784ZM34.5285 15.344C34.5285 14.4053 34.2085 13.6587 33.5685 13.104C32.9285 12.5493 32.1285 12.272 31.1685 12.272C30.2512 12.272 29.4725 12.5387 28.8325 13.072C28.2138 13.6053 27.8298 14.3627 27.6805 15.344H34.5285ZM48.4873 2.32V26H43.0153V2.32H48.4873ZM60.4848 20.88L64.3568 8.144H70.1808L63.8448 26H57.0928L50.7568 8.144H56.6128L60.4848 20.88ZM75.236 6.288C74.276 6.288 73.4867 6.01067 72.868 5.456C72.2707 4.88 71.972 4.176 71.972 3.344C71.972 2.49067 72.2707 1.78667 72.868 1.232C73.4867 0.655998 74.276 0.367998 75.236 0.367998C76.1747 0.367998 76.9427 0.655998 77.54 1.232C78.1587 1.78667 78.468 2.49067 78.468 3.344C78.468 4.176 78.1587 4.88 77.54 5.456C76.9427 6.01067 76.1747 6.288 75.236 6.288ZM77.956 8.144V26H72.484V8.144H77.956ZM92.8015 7.952C94.8922 7.952 96.5562 8.63467 97.7935 10C99.0522 11.344 99.6815 13.2 99.6815 15.568V26H94.2415V16.304C94.2415 15.1093 93.9322 14.1813 93.3135 13.52C92.6948 12.8587 91.8628 12.528 90.8175 12.528C89.7722 12.528 88.9402 12.8587 88.3215 13.52C87.7028 14.1813 87.3935 15.1093 87.3935 16.304V26H81.9215V8.144H87.3935V10.512C87.9482 9.72267 88.6948 9.104 89.6335 8.656C90.5722 8.18667 91.6282 7.952 92.8015 7.952Z" fill="black"/>
</svg>
